<svg width="158" height="37" viewBox="0 0 158 37" fill="none" xmlns="http://www.w3.org/2000/svg">
<path d="M34.1326 23.2928L34.3889 23.3962L34.4662 23.1308C34.8946 21.6601 35.1359 20.1089 35.1359 18.5C35.1359 13.2725 32.7064 8.60637 28.9267 5.55565L28.7211 5.38974L28.5668 5.60411L22.6588 13.8092L22.5321 13.9852L22.6883 14.1355C23.8848 15.2866 24.6322 16.8982 24.6322 18.683C24.6322 18.8735 24.6199 19.063 24.6031 19.2559L24.587 19.4402L24.7586 19.5095L34.1326 23.2928ZM27.2375 4.68587L27.3947 4.46748L27.1653 4.32672C24.6391 2.77627 21.6779 1.86412 18.4992 1.86412C15.0297 1.86412 11.8068 2.93462 9.13859 4.75885L8.92612 4.90411L9.0775 5.11226L14.896 13.1132L15.0272 13.2936L15.2213 13.1838C16.1371 12.6656 17.1914 12.367 18.3162 12.367C19.3151 12.367 20.2577 12.6068 21.0989 13.022L21.2258 12.81L21.3327 12.8869L27.2375 4.68587ZM7.8241 6.13271L7.66169 5.90936L7.45555 6.09311C4.03521 9.14195 1.86494 13.5662 1.86494 18.4992C1.86494 19.9225 2.06345 21.2945 2.39983 22.6104L2.46635 22.8706L2.72111 22.7856L11.8861 19.7304L12.08 19.6657L12.0552 19.4629C12.0234 19.2029 12.0017 18.9436 12.0017 18.6822C12.0017 17.0595 12.6224 15.5818 13.6342 14.4604L13.77 14.3098L13.6508 14.1459L7.8241 6.13271ZM3.21212 24.3246L2.9606 24.4084L3.05903 24.6546C5.382 30.464 10.8851 34.6538 17.4099 35.0808L17.6805 35.0985L17.6762 34.8275L17.5249 25.1541L17.5216 24.9444L17.3146 24.9112C15.2466 24.5787 13.5146 23.2425 12.6325 21.4149L12.5369 21.2168L12.3283 21.2864L3.21212 24.3246ZM19.2912 34.8369L19.2954 35.099L19.557 35.0825C25.9084 34.6811 31.3 30.7143 33.7385 25.1526L33.8419 24.9168L33.6031 24.8204L24.408 21.1095L24.1841 21.0192L24.086 21.2397C23.237 23.1484 21.4698 24.5552 19.3482 24.9065L19.1357 24.9416L19.1391 25.157L19.2912 34.8369ZM0.25 18.5C0.25 8.43676 8.43676 0.25 18.5 0.25C28.5632 0.25 36.75 8.43676 36.75 18.5C36.75 28.5632 28.5632 36.75 18.5 36.75C8.43757 36.75 0.25 28.5632 0.25 18.5ZM13.6158 18.6822C13.6158 21.2744 15.7248 23.3833 18.317 23.3833C20.9083 23.3833 23.0181 21.2745 23.0181 18.6822C23.0181 16.09 20.9092 13.9811 18.317 13.9811C15.7248 13.9811 13.6158 16.09 13.6158 18.6822Z" fill="#FE8E2B" stroke="#FE8E2B" stroke-width="0.5"/>
<path d="M19.6505 18.6829C19.6505 19.2546 19.1869 19.7182 18.6148 19.7182C18.0427 19.7182 17.5791 19.2546 17.5791 18.6829C17.5791 18.1113 18.0427 17.6477 18.6148 17.6477C19.1869 17.6477 19.6505 18.1113 19.6505 18.6829Z" fill="#FE8E2B" stroke="#FE8E2B" stroke-width="0.5"/>
<path d="M53.0635 9.25781H54.6016L63.5811 30H60.6221L58.6592 25.459H48.2734L46.1494 30H43.3662L53.0635 9.25781ZM57.6045 22.998L55.7295 18.6475C55.4951 18.1006 55.2656 17.5342 55.041 16.9482L54.4551 15.293C54.084 14.2188 53.8643 13.4863 53.7959 13.0957H53.6201C53.542 13.4863 53.3662 14.043 53.0928 14.7656C53.0928 14.7656 52.8438 15.4004 52.3457 16.6699C52.1211 17.2168 51.877 17.7734 51.6133 18.3398L49.4307 22.998H57.6045ZM63.1135 9.25781H66.1457L71.5363 21.167C71.7805 21.7139 72.0051 22.2559 72.2102 22.793C72.6789 23.9941 73.0402 24.9756 73.2941 25.7373H73.426C73.5627 25.2979 73.7141 24.8535 73.8801 24.4043L74.4074 22.9688C74.6125 22.4414 74.842 21.9043 75.0959 21.3574L80.5744 9.25781H83.4455L73.924 30.293H72.635L63.1135 9.25781ZM93.8043 25.2979C93.3453 24.5166 92.9889 23.6719 92.735 22.7637C92.4811 21.8457 92.3541 20.8643 92.3541 19.8193C92.3541 18.7744 92.4859 17.7783 92.7496 16.8311C93.023 15.874 93.4088 14.9951 93.9068 14.1943C94.4049 13.3838 95.0006 12.6562 95.6939 12.0117C96.3873 11.3672 97.1588 10.8203 98.0084 10.3711C99.7857 9.43359 101.724 8.96484 103.824 8.96484C106.91 8.96484 109.463 9.82422 111.485 11.543L109.962 13.623C108.253 12.1387 106.119 11.3965 103.56 11.3965C101.246 11.3965 99.2828 12.1582 97.6715 13.6816C96.0406 15.2148 95.2252 17.124 95.2252 19.4092C95.2252 21.8994 96.0309 23.9307 97.6422 25.5029C99.2438 27.0752 101.29 27.8613 103.78 27.8613C105.665 27.8613 107.349 27.3096 108.834 26.2061C109.254 25.8936 109.61 25.5664 109.903 25.2246V22.9834H102.711V20.5225H112.613V30H109.903V27.9932C108.79 28.999 107.3 29.6973 105.435 30.0879C104.752 30.2246 103.956 30.293 103.047 30.293C102.139 30.293 101.216 30.1807 100.279 29.9561C99.3414 29.7217 98.4723 29.3896 97.6715 28.96C96.8707 28.5205 96.1383 27.9932 95.4742 27.3779C94.8199 26.7627 94.2633 26.0693 93.8043 25.2979ZM116.804 9.25781H119.513V20.5225H132.243V9.25781H134.953V30H132.243V22.9834H119.513V30H116.804V9.25781ZM139.158 9.25781H147.376C150.149 9.25781 152.366 9.88281 154.026 11.1328C155.823 12.4805 156.722 14.4189 156.722 16.9482C156.722 19.585 155.774 21.6846 153.88 23.2471C152.083 24.7217 149.778 25.459 146.966 25.459H141.868V30H139.158V9.25781ZM147.332 22.998C149.324 22.998 150.896 22.5 152.049 21.5039C153.25 20.4688 153.851 19.0088 153.851 17.124C153.851 15.3174 153.177 13.9404 151.829 12.9932C150.618 12.1436 148.992 11.7188 146.951 11.7188H141.868V22.998H147.332Z" fill="#585858"/>
</svg>
